<?xml version="1.0" standalone="no"?>
<!DOCTYPE svg PUBLIC "-//W3C//DTD SVG 20010904//EN"
 "http://www.w3.org/TR/2001/REC-SVG-20010904/DTD/svg10.dtd">
<svg version="1.0" xmlns="http://www.w3.org/2000/svg"
 width="3653.000000pt" height="3653.000000pt" viewBox="0 0 3653.000000 3653.000000"
 preserveAspectRatio="xMidYMid meet">
<metadata>
Created by potrace 1.14, written by Peter Selinger 2001-2017
</metadata>
<g transform="translate(0.000000,3653.000000) scale(0.100000,-0.100000)"
fill="#000000" stroke="none">
<path d="M18725 34040 c-1951 -62 -3805 -487 -5570 -1276 -481 -215 -1095
-536 -1555 -814 -2071 -1250 -3805 -2991 -5042 -5065 -333 -559 -634 -1149
-891 -1750 -605 -1416 -985 -2940 -1117 -4485 -11 -129 -20 -257 -20 -285 l1
-50 86 -60 c170 -118 302 -250 374 -371 40 -69 511 -449 935 -756 l50 -37 135
132 c592 582 1374 948 2258 1057 90 11 165 21 166 22 1 2 8 62 15 133 93 993
367 2092 749 3010 27 66 47 123 43 127 -22 21 -415 105 -676 143 -197 29 -244
45 -305 107 -66 65 -86 118 -86 223 0 81 3 95 29 143 36 65 83 107 154 140 51
23 63 24 161 19 173 -9 547 -80 852 -163 70 -19 132 -34 138 -34 6 0 27 33 47
73 155 309 410 741 638 1082 675 1008 1496 1875 2466 2604 1366 1027 2935
1701 4618 1986 645 109 1211 151 1927 142 797 -10 1431 -83 2190 -252 252 -56
261 -59 257 -76 -2 -8 -840 -1680 -1864 -3717 -1023 -2037 -1858 -3705 -1856
-3707 1 -1 558 71 1236 162 679 91 1236 162 1239 160 3 -3 -352 -531 -788
-1174 -436 -642 -874 -1288 -973 -1435 -100 -147 -183 -268 -186 -268 -3 0
-304 897 -669 1993 -365 1095 -667 1996 -672 2001 -6 6 -9 6 -9 0 0 -6 -141
-838 -314 -1850 -324 -1890 -380 -2222 -876 -5134 -160 -938 -354 -2073 -431
-2524 -77 -450 -138 -824 -135 -831 7 -19 175 -82 451 -170 756 -241 1007
-343 1245 -506 92 -62 193 -157 243 -226 l31 -44 50 49 c28 26 121 113 206
192 85 79 184 171 220 205 36 34 765 713 1620 1510 855 796 1751 1631 1990
1854 240 223 586 546 769 716 310 288 653 607 3022 2814 482 449 876 817 875
818 -1 2 -581 -190 -1289 -426 -1245 -415 -1291 -430 -1414 -445 -169 -22
-426 -66 -436 -75 -4 -4 12 -13 35 -20 109 -33 148 -16 -669 -288 l-757 -253
41 43 c22 23 278 299 569 612 1353 1457 5431 5845 5468 5883 l42 43 91 -128
c564 -794 1018 -1667 1346 -2588 339 -952 534 -1925 598 -2985 15 -251 15
-919 0 -1170 -72 -1202 -312 -2290 -743 -3369 l-69 -174 62 -81 c388 -503 971
-1202 1458 -1745 136 -151 166 -180 172 -165 4 11 80 210 168 444 92 241 174
442 190 465 35 49 109 101 164 116 23 6 74 9 113 7 114 -8 200 -65 256 -171
19 -34 23 -58 23 -132 l0 -90 -267 -698 c-297 -779 -288 -761 -404 -818 -55
-28 -76 -32 -139 -32 -139 0 -158 15 -565 463 -612 674 -1225 1408 -1760 2105
-84 110 -154 201 -155 203 -1 1 -55 -32 -121 -74 -468 -300 -1012 -630 -1396
-848 -115 -65 -208 -120 -208 -123 0 -3 26 -42 58 -86 856 -1194 1060 -2373
602 -3486 -127 -308 -321 -640 -526 -896 -119 -150 -380 -408 -544 -538 -216
-173 -481 -343 -727 -466 -57 -28 -103 -55 -103 -59 0 -4 6 -16 14 -27 31 -46
368 -710 546 -1074 147 -304 188 -396 178 -403 -31 -22 -507 -252 -653 -316
-663 -290 -1403 -522 -2079 -652 -61 -11 -111 -22 -112 -23 -2 -1 -24 -101
-49 -222 -90 -428 -208 -926 -306 -1286 -21 -81 -39 -152 -39 -158 0 -13 7
-12 330 15 102 9 213 18 246 20 34 2 230 37 435 78 206 42 511 101 679 131
340 62 532 112 915 240 402 134 750 273 1125 450 153 72 382 188 399 202 6 4
-88 199 -334 694 l-213 427 42 23 c104 58 453 270 623 380 1205 775 2279 1716
3235 2830 259 302 603 747 838 1082 l104 148 111 -115 c139 -144 168 -161 290
-161 78 0 97 4 141 27 59 31 119 94 144 152 10 22 132 340 272 706 l253 665 0
85 c0 72 -4 93 -27 136 -31 60 -94 119 -154 146 -24 10 -44 20 -44 22 0 2 49
104 109 227 792 1632 1274 3413 1415 5239 33 417 40 630 40 1145 0 513 -7 728
-39 1140 -148 1908 -661 3749 -1516 5445 -1605 3185 -4320 5684 -7619 7015
-1525 616 -3132 966 -4790 1044 -308 15 -843 20 -1125 11z m8350 -7520 c70
-77 257 -294 295 -343 16 -20 18 -28 8 -31 -24 -8 -1051 -137 -1055 -132 -6 6
667 588 676 584 4 -2 38 -37 76 -78z m-4970 -816 c264 -311 520 -612 569 -670
l88 -104 -113 -121 -113 -121 170 8 c93 4 187 8 209 8 l39 1 588 -690 c324
-379 587 -692 586 -696 -5 -12 -1307 -1488 -4366 -4949 -644 -728 -1170 -1326
-1168 -1327 2 -2 509 123 1126 277 617 154 1124 279 1127 277 2 -2 -864 -896
-1923 -1986 -1867 -1920 -1928 -1981 -1963 -1981 -75 1 -191 42 -248 90 l-23
18 430 2359 c237 1297 452 2474 477 2616 26 141 50 257 53 257 3 0 149 -379
324 -842 176 -464 323 -851 328 -861 7 -14 161 206 790 1130 1204 1769 2508
3685 3190 4685 340 499 618 911 618 915 0 5 -577 -24 -1282 -63 -706 -39
-1318 -73 -1361 -76 -60 -3 -76 -1 -72 9 4 12 868 1466 1253 2111 96 160 177
292 181 291 3 0 222 -255 486 -565z"/>
<path d="M9375 22817 c-68 -23 -101 -44 -148 -97 -55 -61 -77 -122 -77 -209 0
-124 87 -249 198 -285 26 -9 112 -25 192 -36 1356 -194 2661 -912 3529 -1943
40 -48 75 -87 76 -87 6 0 -61 159 -125 300 -208 459 -499 921 -815 1295 -136
161 -150 173 -297 257 -678 391 -1395 649 -2159 778 -222 37 -321 44 -374 27z"/>
<path d="M13710 20438 c0 -3 20 -57 44 -120 102 -265 208 -621 270 -911 18
-81 36 -148 42 -148 8 0 305 111 312 117 6 4 -157 303 -251 459 -108 180 -201
320 -315 475 -90 122 -102 138 -102 128z"/>
<path d="M4026 19775 c50 -72 250 -327 362 -462 l109 -132 7 -252 c19 -705
100 -1478 231 -2194 40 -216 62 -325 136 -664 13 -58 29 -105 36 -108 7 -3 29
-2 48 1 l35 7 0 282 c0 549 61 970 210 1456 98 318 258 658 446 948 l53 82
-160 127 c-220 173 -390 316 -615 515 -140 124 -224 191 -317 249 -78 48 -123
72 -117 60 7 -12 9 -104 8 -246 l-3 -227 -227 274 c-258 313 -281 339 -242
284z"/>
<path d="M11142 17469 c-50 -25 -90 -79 -99 -133 -3 -21 1 -61 12 -98 35 -127
1 -196 -203 -411 -52 -54 -100 -114 -108 -132 -20 -48 -18 -142 5 -206 10 -30
46 -107 80 -171 50 -96 61 -127 61 -165 0 -85 -19 -104 -225 -228 -97 -59
-213 -172 -245 -240 -19 -39 -24 -66 -24 -126 0 -85 -1 -83 127 -284 65 -103
127 -214 127 -229 0 -3 -65 -38 -145 -77 -172 -84 -239 -138 -285 -232 -75
-152 -59 -273 66 -515 63 -122 74 -151 74 -193 0 -91 -51 -173 -133 -214 -88
-44 -147 -27 -206 58 -63 92 -167 119 -259 67 -121 -68 -107 -197 37 -341 163
-163 411 -189 631 -66 88 49 210 178 256 272 38 76 39 82 39 179 -1 87 -5 114
-33 195 -18 51 -57 142 -88 202 -52 100 -55 110 -45 141 15 44 69 96 211 200
127 93 191 157 215 214 41 98 -6 285 -115 457 -100 159 -93 184 75 272 182 96
273 173 329 280 29 56 31 67 31 160 0 118 -14 155 -115 305 -34 50 -68 108
-76 127 l-15 35 48 54 c194 221 273 379 273 549 0 70 -25 179 -52 228 -47 85
-136 110 -226 66z"/>
<path d="M5013 15513 c2 -10 15 -55 27 -101 13 -45 25 -80 28 -78 4 4 -9 93
-24 169 -3 15 -12 27 -21 27 -10 0 -14 -6 -10 -17z"/>
<path d="M5071 15304 c0 -11 3 -14 6 -6 3 7 2 16 -1 19 -3 4 -6 -2 -5 -13z"/>
<path d="M5215 14409 c-424 -37 -792 -90 -1145 -165 -286 -61 -453 -129 -435
-175 36 -93 708 -146 1308 -104 120 9 299 17 398 18 l180 2 82 -200 c376 -908
882 -1845 1425 -2640 185 -270 488 -685 511 -700 12 -7 171 9 361 36 432 62
943 203 1355 374 194 80 515 237 685 335 283 164 629 407 858 605 139 119 282
254 282 266 0 6 -151 260 -164 276 -1 2 -70 -42 -152 -96 -409 -271 -829 -437
-1284 -508 -178 -28 -617 -25 -800 5 -794 130 -1505 447 -2086 929 -517 429
-944 1009 -1214 1651 -24 56 -48 101 -54 101 -6 -1 -56 -6 -111 -10z"/>
<path d="M11345 11448 c-847 -765 -1895 -1295 -3010 -1522 -93 -19 -205 -40
-247 -46 -43 -7 -78 -15 -78 -18 0 -15 360 -411 631 -693 l198 -206 -87 -12
c-474 -63 -972 -67 -1437 -10 -898 109 -1785 437 -2515 928 -175 118 -191 125
-285 125 -68 1 -89 -3 -137 -27 -111 -55 -172 -153 -173 -277 0 -164 51 -220
405 -442 503 -316 1053 -559 1645 -728 860 -244 1760 -306 2625 -180 132 20
408 71 482 91 l38 10 117 -103 c1429 -1252 3128 -2231 4928 -2841 243 -82 495
-161 500 -155 2 2 -19 51 -45 109 -406 897 -620 1892 -620 2876 l0 218 -57 45
c-127 99 -479 396 -653 552 -749 669 -1367 1355 -2005 2223 -64 88 -120 161
-124 162 -3 2 -46 -34 -96 -79z"/>
<path d="M14910 8002 c0 -171 57 -628 111 -897 114 -563 283 -1068 520 -1554
119 -244 283 -533 384 -678 l27 -38 -5 118 c-3 75 -2 117 5 117 5 0 132 -25
281 -55 659 -132 1277 -215 1942 -259 347 -24 909 -39 1165 -32 l235 6 180
-45 c713 -180 1491 -289 2215 -311 l215 -7 67 249 c127 467 329 1326 316 1339
-3 3 -72 -1 -154 -9 -300 -31 -427 -37 -840 -43 -448 -6 -720 3 -1089 38
-1649 153 -3235 681 -4720 1572 -207 124 -528 332 -720 466 -60 43 -116 81
-122 85 -10 5 -13 -9 -13 -62z"/>
<path d="M23923 3886 c-28 -6 -55 -14 -59 -18 -14 -15 77 -8 106 7 53 27 39
30 -47 11z"/>
</g>
</svg>
